<svg width="710" height="172" viewBox="0 0 710 172" fill="none" xmlns="http://www.w3.org/2000/svg">
<path d="M121.034 152.31C114.333 152.31 108.967 146.665 109.434 139.891C109.834 134.081 114.667 129.399 120.5 129.133C126.933 128.835 132.3 133.782 132.667 140.024C136.234 141.552 140.067 142.349 144 142.349C144.301 142.349 144.633 142.349 144.933 142.349C149.767 142.182 154.334 140.19 157.833 136.903C180.067 115.984 200 86.3984 200 49.8403C200 22.4137 177.666 0.166696 150.133 0.166696C122.6 0.166696 100.267 29.9508 100.267 29.9508C100.267 29.9508 77.4333 0 49.8665 0C22.2997 0 0 22.247 0 49.6746C0 75.4411 9.90024 97.7546 23.4995 116.017C26.2333 119.67 29.8325 122.625 34.0325 124.485C40.4324 127.34 47.3662 128.801 54.4987 128.801C62.5654 128.801 70.2988 126.941 77.4323 123.289C80.8658 121.53 84.0657 119.371 87.0321 116.881C71.3987 111.501 60.166 96.6919 60.166 79.3257V71.0583C55.9659 68.6343 53.2321 64.0184 53.5326 58.8061C53.9328 52.2316 59.2328 46.8516 65.8322 46.3873C73.6325 45.8227 80.0992 51.9656 80.0992 59.6029C80.0992 64.5165 77.4323 68.7673 73.4328 71.0583V79.3257C73.4328 93.9364 85.3662 105.823 100.032 105.823C114.699 105.823 126.632 93.9364 126.632 79.3257V71.0583C122.432 68.6343 119.699 64.0184 120 58.8061C120.399 52.2316 125.699 46.8516 132.299 46.3873C140.1 45.8227 146.566 51.9656 146.566 59.6029C146.566 64.5165 143.899 68.7673 139.899 71.0583V79.3257C139.899 100.046 123.899 117.113 103.533 118.906C98.0322 125.58 91.1323 131.126 83.4329 135.077C74.5328 139.626 64.4988 142.049 54.4329 142.049C52.0993 142.049 49.7657 141.917 47.466 141.684C70.166 161.309 93.6655 172 100.065 172C104.866 172 119.199 165.99 135.599 154.767C132.133 154.07 128.766 152.907 125.566 151.38C124.2 151.978 122.634 152.31 121.034 152.31Z" fill="url(#paint0_radial)"/>
<path d="M82.1738 28.0899C93.2978 47.3013 69.9471 20.0535 40.7424 37.1273C12.4032 53.6961 23.5262 87.4678 12.4032 68.2564C1.28019 49.045 7.88102 24.4801 27.1478 13.3882C46.4135 2.29628 71.0497 8.87847 82.1738 28.0899Z" fill="url(#paint1_linear)"/>
<path d="M447.092 0.474854C445.02 0.474854 443.178 1.14961 441.782 2.61982C440.435 4.0376 439.793 5.80661 439.793 7.7824V43.0151L408.277 3.32327L408.269 3.32921C407.547 2.2963 406.517 1.60274 405.325 1.19116L405.327 1.18721C405.298 1.17533 405.268 1.16742 405.239 1.15654C405.231 1.15357 405.225 1.14961 405.217 1.14763V1.14862C404.088 0.716261 402.943 0.475842 401.791 0.475842C399.606 0.475842 397.681 1.24459 396.141 2.76625C394.64 4.24735 393.914 6.13014 393.914 8.25928V63.7406C393.914 65.7164 394.556 67.4854 395.903 68.9022C397.282 70.3556 399.082 71.0482 401.117 71.0482C403.167 71.0482 404.989 70.3853 406.38 68.9467L406.382 68.9487C406.392 68.9388 406.4 68.9279 406.41 68.918C406.415 68.9121 406.421 68.9081 406.427 68.9022L406.426 68.9012C407.824 67.4983 408.512 65.7322 408.512 63.7406V28.8027L440.319 68.6786L441.888 67.4518L440.319 68.6786L440.352 68.7192L440.386 68.7568C441.106 69.569 442.053 70.1389 443.1 70.5367L443.814 68.6944L443.813 68.6964L443.099 70.5367L443.181 70.5683L443.267 70.5921C444.323 70.8899 445.376 71.0482 446.417 71.0482C448.567 71.0482 450.471 70.3338 451.972 68.8537C453.512 67.3321 454.294 65.4285 454.294 63.2647V7.78339C454.294 5.8076 453.652 4.03859 452.305 2.62081C450.927 1.16742 449.127 0.474854 447.092 0.474854ZM404.586 3.02448L404.587 3.02151L404.586 3.02448Z" fill="#1A202C"/>
<path d="M710 63.9294C710 62.9331 709.771 61.9269 709.385 60.9335L707.521 61.6459L709.362 60.8771L685.652 5.11084L685.647 5.11282C685.069 3.61194 684.108 2.39203 682.769 1.52732L682.773 1.52137C682.75 1.50456 682.724 1.49367 682.701 1.47685C682.683 1.46498 682.668 1.45014 682.65 1.43926L682.647 1.44421C681.44 0.604226 680.085 0.150102 678.62 0.110527L678.621 0.105575C678.59 0.102607 678.561 0.106565 678.531 0.103597C678.491 0.102608 678.453 0.0946903 678.412 0.0946903V0.10162C676.788 -0.0210632 675.251 0.378647 673.859 1.26711L674.943 2.93025L674.929 2.91046L673.859 1.2681L673.837 1.28294L673.814 1.29877C672.433 2.23571 671.433 3.53872 670.788 5.11876L670.786 5.11777L646.786 62.0268L646.747 62.1218L646.717 62.2197C646.476 63.0102 646.343 63.8057 646.343 64.5972C646.343 66.4157 646.9 68.066 648.086 69.4174C649.424 70.9421 651.356 71.5248 653.449 71.5248C654.962 71.5248 656.362 71.0766 657.596 70.207L656.436 68.5943L656.466 68.6348L657.595 70.206L657.605 70.1981L657.615 70.1911C658.898 69.2621 659.814 68.0096 660.39 66.5126L660.394 66.5146L664.876 56.1073H690.983L695.468 66.4256H695.469C696.094 67.8869 696.989 69.1236 698.192 70.0566L698.218 70.0764L698.244 70.0962C699.538 71.0331 701.009 71.5238 702.604 71.5238C704.5 71.5238 706.181 70.7966 707.591 69.5025L707.592 69.5035C707.597 69.4996 707.6 69.4946 707.605 69.4907C707.615 69.4818 707.625 69.4748 707.634 69.4659L707.632 69.4639C709.242 68.0293 710 66.1139 710 63.9294ZM658.557 65.738L658.561 65.7389L658.557 65.738ZM681.594 3.11823C681.593 3.11922 681.593 3.11922 681.594 3.11823V3.11823ZM671.295 41.2043L677.871 25.9353L684.508 41.2043H671.295ZM706.267 68.0214C706.268 68.0214 706.268 68.0214 706.267 68.0214L706.275 68.0294L706.267 68.0214Z" fill="#1A202C"/>
<path d="M540.844 60.9338L540.833 60.9051L540.822 60.8774L538.98 61.6462L540.844 60.9338Z" fill="#1A202C"/>
<path d="M334.332 1.26636L334.308 1.2812L334.285 1.29703L335.415 2.9295L334.332 1.26636Z" fill="#1A202C"/>
<path d="M624.717 22.349C624.716 22.3441 624.714 22.3391 624.712 22.3342C624.71 22.3273 624.708 22.3203 624.706 22.3134C623.421 18.0531 621.453 14.2866 618.79 11.0404L618.791 11.0394C618.785 11.0315 618.778 11.0246 618.772 11.0167C618.768 11.0127 618.765 11.0078 618.762 11.0038C616.135 7.67061 612.88 5.07646 609.019 3.2382C605.111 1.37817 600.694 0.473877 595.817 0.473877H572.781C570.594 0.473877 568.669 1.24263 567.129 2.76429C565.629 4.24539 564.903 6.12817 564.903 8.25731V63.2628C564.903 65.3909 565.627 67.2816 567.089 68.8112L567.128 68.8518L567.17 68.8904L568.534 67.4548L567.169 68.8904C568.717 70.3338 570.628 71.0462 572.78 71.0462H595.816C602.373 71.0462 608.03 69.4741 612.67 66.2161C612.671 66.2161 612.671 66.2151 612.672 66.2141C612.675 66.2121 612.679 66.2101 612.682 66.2081V66.2072C617.296 63.0095 620.797 58.7255 623.184 53.4076L623.188 53.3997L621.398 52.622L621.359 52.6042L623.188 53.3997C625.559 48.0471 626.729 42.1574 626.729 35.76C626.728 31.0199 626.063 26.5469 624.717 22.349ZM610.203 35.761C610.203 39.5563 609.624 43.0429 608.485 46.2366L610.369 46.8955L610.356 46.8905L608.485 46.2366L608.482 46.2465L608.478 46.2573C607.434 49.2928 605.778 51.6989 603.525 53.5382C601.386 55.2251 598.551 56.1462 594.852 56.1462H580.946V15.3759H594.852C597.602 15.3759 599.854 15.923 601.686 16.9342C603.589 17.9839 605.154 19.4165 606.395 21.2538L606.403 21.2657L606.411 21.2775L608.049 20.1585L608.055 20.1546L606.41 21.2775C607.664 23.0782 608.601 25.2212 609.194 27.7411L609.2 27.7678L609.207 27.7946L611.118 27.2969L611.14 27.292L609.208 27.7946C609.868 30.2819 610.203 32.9354 610.203 35.761Z" fill="#1A202C"/>
<path d="M709.385 60.9338L709.374 60.9051L709.362 60.8774L707.521 61.6462L709.385 60.9338Z" fill="#1A202C"/>
<path d="M540.844 60.9336L538.98 61.6459L540.822 60.8772L517.111 5.11087L517.107 5.11285C516.529 3.61295 515.568 2.39206 514.228 1.52734L514.232 1.5214C514.209 1.50458 514.183 1.4937 514.16 1.47688C514.142 1.46501 514.127 1.45017 514.109 1.43928L514.106 1.44424C512.9 0.604255 511.544 0.15013 510.079 0.110555L510.08 0.105604C510.05 0.102635 510.021 0.106594 509.991 0.103626C509.951 0.102637 509.913 0.0947189 509.872 0.0947189V0.101648C508.249 -0.022024 506.71 0.378675 505.319 1.26714L506.402 2.92929L506.396 2.92137L505.319 1.26714L505.295 1.28198L505.273 1.29781C503.893 2.23475 502.892 3.53776 502.248 5.11779L502.246 5.11681L478.246 62.0258L480.089 62.7886H480.088L478.246 62.0258L478.206 62.1208L478.176 62.2188C477.936 63.0093 477.802 63.8047 477.802 64.5962C477.802 66.4147 478.36 68.065 479.546 69.4165C480.884 70.9411 482.815 71.5238 484.909 71.5238C486.421 71.5238 487.822 71.0757 489.055 70.206L487.896 68.5933L487.909 68.6111L489.055 70.205L489.065 70.1971L489.075 70.1902C490.358 69.2611 491.275 68.0086 491.851 66.5117L491.855 66.5136L496.337 56.1064H522.445L526.924 66.4127H526.923C527.548 67.879 528.446 69.1197 529.652 70.0556L529.678 70.0754L529.705 70.0952L530.871 68.5152L530.884 68.4983L529.704 70.0962C530.998 71.0331 532.469 71.5238 534.064 71.5238C535.959 71.5238 537.64 70.7967 539.051 69.5035C539.053 69.5016 539.055 69.4996 539.057 69.4976C539.069 69.4867 539.082 69.4768 539.094 69.4659L539.092 69.464C540.701 68.0304 541.459 66.1159 541.459 63.9304C541.46 62.9331 541.231 61.9269 540.844 60.9336ZM509.872 2.06754V2.07249V2.06754ZM502.754 41.2044L509.33 25.9353L515.967 41.2044H502.754Z" fill="#1A202C"/>
<path d="M369.856 60.9338L369.845 60.9051L369.833 60.8774L367.992 61.6462L369.856 60.9338Z" fill="#1A202C"/>
<path d="M285.813 56.5271C285.811 56.5242 285.809 56.5212 285.807 56.5182C285.803 56.5133 285.8 56.5093 285.797 56.5044L285.796 56.5054C284.609 55.0084 283.046 54.0576 281.161 53.7885V53.7875C281.159 53.7875 281.157 53.7875 281.155 53.7875C281.152 53.7875 281.15 53.7865 281.147 53.7855V53.7865C279.418 53.5343 277.706 53.8479 276.058 54.6236L276.914 56.4104L276.911 56.4044L276.058 54.6236L276.026 54.6384L275.995 54.6542C274.558 55.3913 273.075 55.8969 271.54 56.1779C269.922 56.4737 268.308 56.6211 266.697 56.6211C263.748 56.6211 261.046 56.2046 258.577 55.3953C256.144 54.5345 254.053 53.2562 252.278 51.5604C250.516 49.8775 249.094 47.7484 248.029 45.1285C247.046 42.5512 246.527 39.4435 246.527 35.7601C246.527 32.6604 246.978 29.8792 247.855 27.3939C248.793 24.9135 250.123 22.8101 251.842 21.0549L251.853 21.0441L251.864 21.0332C253.584 19.2206 255.652 17.8276 258.087 16.8521C260.58 15.8805 263.439 15.3749 266.697 15.3749C268.423 15.3749 270.039 15.551 271.551 15.8953L271.559 15.8973L271.567 15.8993L271.986 14.0225L271.999 13.968L271.567 15.9003C273.171 16.2525 274.675 16.7482 276.084 17.3853L276.085 17.3844C277.699 18.1393 279.366 18.4816 281.054 18.3173V18.3183C281.056 18.3183 281.058 18.3173 281.06 18.3173C281.061 18.3173 281.063 18.3173 281.064 18.3173C282.969 18.1353 284.534 17.2181 285.68 15.7074L285.681 15.7084C285.69 15.6985 285.696 15.6876 285.705 15.6767C285.723 15.653 285.743 15.6312 285.761 15.6074L285.759 15.6055C287.257 13.7642 287.867 11.6252 287.467 9.31202H287.47C287.468 9.29718 287.463 9.28333 287.461 9.26849C287.46 9.26057 287.459 9.25266 287.458 9.24375H287.456C287.088 6.84253 285.714 5.02505 283.51 3.92981V3.92881C283.507 3.92782 283.504 3.92585 283.501 3.92486C283.497 3.92288 283.494 3.9209 283.491 3.91892V3.91991C280.971 2.64362 278.288 1.67205 275.446 1.00521C272.594 0.334409 269.676 0 266.696 0C261.46 0 256.583 0.894398 252.087 2.70694V2.70594C252.079 2.70891 252.072 2.71188 252.065 2.71485C252.064 2.71485 252.064 2.71485 252.063 2.71584C247.594 4.45714 243.678 6.94246 240.338 10.1738C237.051 13.3507 234.493 17.1291 232.66 21.4873L232.655 21.4992L232.65 21.512L234.472 22.2353L234.504 22.2481L232.65 21.512C230.875 25.892 230 30.6499 230 35.7621C230 41.6231 230.967 46.8767 232.957 51.4813L232.961 51.4912L234.69 50.7472L234.793 50.7036L232.961 51.4912C234.929 55.981 237.629 59.7733 241.073 62.8344L241.081 62.8403L241.088 62.8473C244.554 65.8669 248.469 68.1523 252.818 69.6957L252.827 69.6987L253.46 67.9188L253.491 67.8327L252.827 69.6987C257.226 71.2352 261.853 72 266.696 72C268.651 72 270.577 71.8348 272.472 71.5043C272.476 71.5033 272.48 71.5033 272.483 71.5023C272.502 71.4994 272.522 71.4964 272.541 71.4934V71.4924C274.412 71.2253 276.252 70.8306 278.058 70.3012L278.08 70.2953L278.101 70.2884C279.985 69.6898 281.804 68.9577 283.559 68.0939V68.0949C283.563 68.093 283.566 68.091 283.569 68.089C283.575 68.086 283.581 68.084 283.587 68.0811L283.587 68.0801C285.697 67.0709 287.077 65.385 287.535 63.1243H287.537C287.539 63.1164 287.539 63.1085 287.541 63.1005C287.543 63.0897 287.547 63.0798 287.549 63.0689L287.546 63.0679C288.062 60.7013 287.385 58.4792 285.813 56.5271ZM284.143 14.4439L284.148 14.4479L284.143 14.4439ZM282.602 5.68793L282.601 5.68892L282.602 5.68793ZM276.914 15.5857L276.895 15.6262L276.914 15.5857ZM257.348 15.0148L257.349 15.0188L257.348 15.0148ZM246.167 45.8488L246.189 45.8399L246.167 45.8488Z" fill="#1A202C"/>
<path d="M369.856 60.9335L367.992 61.6459L369.833 60.8771L346.123 5.11084L346.119 5.11282C345.541 3.61292 344.581 2.39203 343.24 1.52732L343.244 1.52137C343.221 1.50456 343.196 1.49367 343.172 1.47685C343.154 1.46498 343.14 1.45014 343.122 1.43926L343.119 1.44421C341.912 0.604226 340.556 0.150102 339.092 0.110527L339.093 0.105575C339.062 0.102607 339.033 0.106565 339.003 0.103597C338.963 0.102608 338.925 0.0946903 338.884 0.0946903V0.10162C337.26 -0.0210632 335.723 0.378647 334.332 1.26711L335.415 2.93025L334.285 1.29778C332.905 2.23472 331.905 3.53773 331.26 5.11777L331.258 5.11678L307.259 62.0258L309.102 62.7886L307.259 62.0258L307.219 62.1208L307.189 62.2187C306.949 63.0092 306.815 63.8047 306.815 64.5962C306.815 66.4147 307.373 68.065 308.558 69.4165C309.897 70.9411 311.828 71.5238 313.921 71.5238C315.434 71.5238 316.834 71.0756 318.068 70.206L316.926 68.618L316.939 68.6348L318.068 70.206L318.078 70.1981L318.088 70.1911C319.37 69.2621 320.286 68.0096 320.864 66.5136L320.867 66.5146L325.349 56.1073H351.455L355.941 66.4256H355.942C356.567 67.8869 357.463 69.1236 358.665 70.0566L358.691 70.0764L358.717 70.0962L359.891 68.5052L359.896 68.4983L358.717 70.0962C360.011 71.0331 361.482 71.5238 363.077 71.5238C364.973 71.5238 366.654 70.7966 368.063 69.5025L368.064 69.5035C368.069 69.4996 368.072 69.4946 368.077 69.4907C368.087 69.4818 368.097 69.4748 368.106 69.4659L368.104 69.4639C369.713 68.0303 370.473 66.1149 370.473 63.9303C370.473 62.933 370.244 61.9269 369.856 60.9335ZM342.066 3.11823C342.065 3.11922 342.065 3.11922 342.066 3.11823V3.11823ZM331.767 41.2043L338.343 25.9353L344.979 41.2043H331.767ZM357.753 65.6519L357.775 65.642L357.753 65.6519ZM366.739 68.0214C366.74 68.0214 366.74 68.0214 366.739 68.0214L366.747 68.0293L366.739 68.0214Z" fill="#1A202C"/>
<path d="M264.362 143.234C263.114 143.234 262.179 143.49 261.555 144C260.931 144.511 260.223 144.993 259.429 145.447C258.749 145.787 257.898 146.043 256.877 146.213C255.856 146.383 254.637 146.468 253.22 146.468C250.668 146.468 248.4 145.844 246.416 144.596C244.488 143.348 242.956 141.674 241.823 139.575C240.746 137.419 240.207 134.979 240.207 132.255C240.207 129.476 240.746 127.035 241.823 124.937C242.9 122.78 244.431 121.078 246.416 119.83C248.457 118.581 250.923 117.957 253.815 117.957C254.382 117.957 255.233 118.071 256.367 118.298C257.558 118.468 258.436 118.723 259.003 119.064C259.627 119.405 260.166 119.773 260.62 120.17C261.073 120.567 261.583 120.908 262.15 121.191C262.774 121.419 263.539 121.532 264.447 121.532C265.751 121.532 266.743 121.049 267.424 120.085C268.104 119.064 268.444 117.985 268.444 116.851C268.444 115.149 267.764 113.702 266.403 112.51C265.1 111.263 263.228 110.298 260.79 109.617C258.408 108.936 255.602 108.596 252.37 108.596C248.003 108.596 244.119 109.617 240.717 111.66C237.371 113.645 234.735 116.426 232.807 120C230.935 123.517 230 127.603 230 132.255C230 136.681 230.879 140.681 232.637 144.255C234.452 147.83 237.003 150.666 240.292 152.766C243.58 154.809 247.465 155.83 251.944 155.83C254.95 155.83 257.727 155.49 260.28 154.809C262.888 154.071 264.986 153.135 266.574 152C268.161 150.809 268.955 149.504 268.955 148.086C268.955 146.723 268.558 145.589 267.764 144.681C266.97 143.716 265.836 143.234 264.362 143.234Z" fill="#1A202C"/>
<path d="M313.154 108.596C311.679 108.596 310.46 109.106 309.495 110.128C308.532 111.092 308.05 112.312 308.05 113.787V113.94C307.541 113.459 306.984 112.981 306.348 112.51C304.874 111.376 303.117 110.439 301.075 109.702C299.034 108.964 296.795 108.596 294.356 108.596C290.557 108.596 287.098 109.617 283.98 111.66C280.861 113.645 278.366 116.426 276.495 120C274.68 123.517 273.773 127.603 273.773 132.255C273.773 136.851 274.68 140.937 276.495 144.511C278.366 148.029 280.89 150.809 284.065 152.851C287.24 154.837 290.784 155.83 294.696 155.83C296.851 155.83 298.836 155.49 300.65 154.809C302.522 154.071 304.138 153.191 305.498 152.17C306.509 151.412 307.362 150.653 308.059 149.895C308.083 151.321 308.556 152.537 309.495 153.532C310.46 154.497 311.679 154.979 313.154 154.979C314.628 154.979 315.846 154.497 316.811 153.532C317.775 152.511 318.257 151.262 318.257 149.787V113.787C318.257 112.255 317.775 111.007 316.811 110.042C315.846 109.078 314.628 108.596 313.154 108.596ZM306.859 139.49C305.838 141.645 304.392 143.348 302.522 144.596C300.65 145.844 298.467 146.468 295.972 146.468C293.534 146.468 291.379 145.844 289.508 144.596C287.637 143.348 286.163 141.645 285.086 139.49C284.065 137.334 283.555 134.922 283.555 132.255C283.555 129.532 284.065 127.092 285.086 124.937C286.163 122.78 287.637 121.078 289.508 119.83C291.379 118.581 293.534 117.957 295.972 117.957C298.467 117.957 300.65 118.581 302.522 119.83C304.392 121.078 305.838 122.78 306.859 124.937C307.936 127.092 308.475 129.532 308.475 132.255C308.475 134.922 307.936 137.334 306.859 139.49Z" fill="#1A202C"/>
<path d="M357.215 110.042C356.081 109.078 354.664 108.596 352.962 108.596C351.545 108.596 350.128 108.766 348.71 109.106C347.292 109.446 345.959 109.985 344.712 110.724C343.465 111.404 342.33 112.284 341.31 113.362C340.627 114.084 340.036 114.897 339.524 115.791V114.638C339.524 113.163 339.041 111.943 338.078 110.978C337.114 109.957 335.894 109.446 334.42 109.446C332.946 109.446 331.727 109.957 330.763 110.978C329.799 111.943 329.317 113.163 329.317 114.638V149.787C329.317 151.262 329.799 152.511 330.763 153.532C331.727 154.497 332.946 154.979 334.42 154.979C335.894 154.979 337.114 154.497 338.078 153.532C339.041 152.511 339.524 151.262 339.524 149.787V129.617C339.524 127.574 339.779 125.816 340.289 124.341C340.856 122.809 341.565 121.532 342.416 120.51C343.323 119.489 344.287 118.752 345.308 118.298C346.385 117.787 347.434 117.532 348.455 117.532C349.589 117.532 350.581 117.731 351.431 118.128C352.338 118.524 353.331 118.723 354.408 118.723C355.542 118.723 356.591 118.327 357.555 117.532C358.52 116.681 359.002 115.319 359.002 113.446C359.002 112.142 358.406 111.007 357.215 110.042Z" fill="#1A202C"/>
<path d="M398.648 115.319C396.663 113.22 394.367 111.574 391.759 110.383C389.207 109.192 386.485 108.596 383.593 108.596C379.851 108.596 376.307 109.56 372.961 111.489C369.616 113.418 366.895 116.199 364.797 119.83C362.755 123.405 361.735 127.745 361.735 132.851C361.735 137.22 362.67 141.135 364.541 144.596C366.469 148.057 369.19 150.809 372.707 152.851C376.279 154.837 380.475 155.83 385.294 155.83C388.13 155.83 390.879 155.376 393.544 154.468C396.209 153.504 398.279 152.397 399.754 151.149C401.342 149.901 402.135 148.511 402.135 146.979C402.135 145.844 401.71 144.851 400.859 144C400.065 143.149 399.045 142.723 397.797 142.723C396.89 142.723 395.926 142.979 394.906 143.49C394.282 143.83 393.573 144.255 392.779 144.766C392.042 145.22 391.05 145.617 389.802 145.958C388.555 146.298 386.882 146.468 384.784 146.468C382.516 146.468 380.361 145.929 378.32 144.851C376.335 143.716 374.691 142.099 373.386 140.001C372.657 138.739 372.147 137.317 371.844 135.745H399.923C401.285 135.745 402.475 135.319 403.496 134.469C404.517 133.617 405.056 132.511 405.112 131.149C405.112 128.085 404.517 125.191 403.326 122.469C402.192 119.745 400.633 117.362 398.648 115.319ZM394.225 127.234H371.951C372.089 126.536 372.247 125.871 372.451 125.277C373.075 123.462 373.925 122.014 375.002 120.937C376.08 119.858 377.356 119.092 378.83 118.638C380.304 118.184 381.892 117.957 383.593 117.957C385.351 117.957 386.996 118.355 388.527 119.149C390.114 119.887 391.418 120.908 392.439 122.213C393.516 123.517 394.111 124.992 394.225 126.638V127.234Z" fill="#1A202C"/>
<path d="M419.663 92C418.189 92 416.941 92.51 415.921 93.532C414.957 94.496 414.475 95.7166 414.475 97.1917V149.787C414.475 151.262 414.957 152.511 415.921 153.532C416.884 154.497 418.075 154.979 419.493 154.979C420.967 154.979 422.186 154.497 423.15 153.532C424.17 152.511 424.681 151.262 424.681 149.787V97.1917C424.681 95.7166 424.199 94.496 423.235 93.532C422.328 92.51 421.137 92 419.663 92Z" fill="#1A202C"/>
<path d="M441.056 93.7875C439.242 93.7875 437.881 94.0989 436.974 94.7236C436.124 95.2905 435.698 96.3973 435.698 98.042V99.6598C435.698 101.248 436.095 102.354 436.889 102.978C437.683 103.603 439.044 103.914 440.971 103.914C442.9 103.914 444.289 103.631 445.14 103.064C445.99 102.439 446.415 101.305 446.415 99.6598V98.042C446.415 96.4542 446.018 95.3474 445.224 94.7236C444.431 94.0989 443.042 93.7875 441.056 93.7875Z" fill="#1A202C"/>
<path d="M441.056 109.446C439.582 109.446 438.363 109.957 437.399 110.978C436.435 111.943 435.953 113.163 435.953 114.638V149.787C435.953 151.262 436.435 152.511 437.399 153.532C438.363 154.497 439.582 154.979 441.056 154.979C442.531 154.979 443.75 154.497 444.714 153.532C445.678 152.511 446.16 151.262 446.16 149.787V114.638C446.16 113.163 445.678 111.943 444.714 110.978C443.75 109.957 442.531 109.446 441.056 109.446Z" fill="#1A202C"/>
<path d="M483.697 92.51C482.506 92.1697 481.287 92 480.039 92C474.369 92 470.116 93.3902 467.282 96.1697C464.446 98.9502 463.029 102.354 463.029 106.382V110.298H458.435C457.075 110.298 455.941 110.752 455.034 111.66C454.127 112.51 453.672 113.617 453.672 114.978C453.672 116.341 454.127 117.475 455.034 118.383C455.941 119.234 457.075 119.66 458.435 119.66H463.029V149.787C463.029 151.262 463.511 152.511 464.475 153.532C465.438 154.497 466.658 154.979 468.132 154.979C469.606 154.979 470.825 154.497 471.789 153.532C472.753 152.511 473.235 151.262 473.235 149.787V119.66H480.975C482.336 119.66 483.47 119.234 484.377 118.383C485.285 117.475 485.738 116.341 485.738 114.978C485.738 113.617 485.285 112.51 484.377 111.66C483.47 110.752 482.336 110.298 480.975 110.298H473.235V106.298C473.235 105.674 473.377 104.964 473.661 104.17C473.944 103.32 474.454 102.581 475.192 101.957C475.985 101.333 477.091 101.021 478.508 101.021C479.473 101.021 480.465 101.163 481.486 101.446C482.506 101.674 483.271 101.788 483.781 101.788C484.859 101.788 485.795 101.39 486.588 100.596C487.439 99.7446 487.865 98.6099 487.865 97.1917C487.865 95.9432 487.467 94.9501 486.674 94.2126C485.879 93.4182 484.887 92.8513 483.697 92.51Z" fill="#1A202C"/>
<path d="M526.479 115.319C524.493 113.22 522.198 111.574 519.589 110.383C517.037 109.192 514.316 108.596 511.424 108.596C507.681 108.596 504.138 109.56 500.792 111.489C497.447 113.418 494.725 116.199 492.627 119.83C490.586 123.405 489.564 127.745 489.564 132.851C489.564 137.22 490.501 141.135 492.371 144.596C494.299 148.057 497.021 150.809 500.537 152.851C504.109 154.837 508.305 155.83 513.125 155.83C515.96 155.83 518.71 155.376 521.375 154.468C524.04 153.504 526.11 152.397 527.584 151.149C529.171 149.901 529.966 148.511 529.966 146.979C529.966 145.844 529.541 144.851 528.689 144C527.896 143.149 526.875 142.723 525.628 142.723C524.721 142.723 523.757 142.979 522.736 143.49C522.112 143.83 521.403 144.255 520.61 144.766C519.872 145.22 518.88 145.617 517.632 145.958C516.386 146.298 514.713 146.468 512.615 146.468C510.346 146.468 508.191 145.929 506.15 144.851C504.166 143.716 502.521 142.099 501.217 140.001C500.488 138.739 499.978 137.317 499.674 135.745H527.754C529.115 135.745 530.305 135.319 531.326 134.469C532.347 133.617 532.885 132.511 532.942 131.149C532.942 128.085 532.347 125.191 531.157 122.469C530.022 119.745 528.463 117.362 526.479 115.319ZM522.056 127.234H499.782C499.92 126.536 500.078 125.871 500.281 125.277C500.905 123.462 501.756 122.014 502.833 120.937C503.91 119.858 505.187 119.092 506.661 118.638C508.135 118.184 509.722 117.957 511.424 117.957C513.182 117.957 514.826 118.355 516.357 119.149C517.945 119.887 519.248 120.908 520.269 122.213C521.346 123.517 521.942 124.992 522.056 126.638V127.234Z" fill="#1A202C"/>
<path d="M575.646 111.66C572.527 109.617 568.984 108.596 565.015 108.596C563.03 108.596 561.13 108.936 559.316 109.617C557.558 110.298 555.999 111.177 554.638 112.255C553.411 113.176 552.426 114.122 551.661 115.089V114.638C551.661 113.163 551.179 111.943 550.215 110.978C549.251 109.957 548.032 109.446 546.558 109.446C545.083 109.446 543.865 109.957 542.9 110.978C541.936 111.943 541.454 113.163 541.454 114.638V166.808C541.454 168.34 541.936 169.589 542.9 170.554C543.865 171.518 545.083 172 546.558 172C548.032 172 549.251 171.49 550.215 170.468C551.179 169.504 551.661 168.284 551.661 166.808V150.146C552.259 150.736 552.936 151.326 553.702 151.915C555.233 153.05 556.991 153.986 558.976 154.723C560.96 155.461 563.086 155.83 565.355 155.83C569.211 155.83 572.669 154.837 575.731 152.851C578.85 150.809 581.317 148.029 583.131 144.511C585.003 140.937 585.938 136.823 585.938 132.17C585.938 127.517 585.003 123.433 583.131 119.915C581.317 116.398 578.821 113.645 575.646 111.66ZM574.541 139.49C573.519 141.645 572.074 143.348 570.203 144.596C568.388 145.844 566.233 146.468 563.739 146.468C561.244 146.468 559.061 145.844 557.189 144.596C555.318 143.348 553.844 141.645 552.767 139.49C551.746 137.277 551.236 134.837 551.236 132.17C551.236 129.447 551.746 127.035 552.767 124.937C553.844 122.78 555.318 121.078 557.189 119.83C559.061 118.581 561.244 117.957 563.739 117.957C566.233 117.957 568.388 118.581 570.203 119.83C572.074 121.078 573.519 122.78 574.541 124.937C575.618 127.035 576.157 129.447 576.157 132.17C576.157 134.837 575.618 137.277 574.541 139.49Z" fill="#1A202C"/>
<path d="M600.486 92C599.012 92 597.765 92.51 596.743 93.532C595.779 94.496 595.298 95.7166 595.298 97.1917V149.787C595.298 151.262 595.779 152.511 596.743 153.532C597.708 154.497 598.898 154.979 600.316 154.979C601.79 154.979 603.01 154.497 603.974 153.532C604.994 152.511 605.504 151.262 605.504 149.787V97.1917C605.504 95.7166 605.023 94.496 604.059 93.532C603.151 92.51 601.961 92 600.486 92Z" fill="#1A202C"/>
<path d="M654.201 108.596C652.726 108.596 651.507 109.106 650.544 110.128C649.579 111.092 649.097 112.312 649.097 113.787V113.94C648.588 113.459 648.032 112.981 647.397 112.51C645.922 111.376 644.164 110.439 642.123 109.702C640.081 108.964 637.842 108.596 635.403 108.596C631.604 108.596 628.146 109.617 625.027 111.66C621.908 113.645 619.414 116.426 617.542 120C615.728 123.517 614.82 127.603 614.82 132.255C614.82 136.851 615.728 140.937 617.542 144.511C619.414 148.029 621.937 150.809 625.112 152.851C628.288 154.837 631.831 155.83 635.744 155.83C637.899 155.83 639.883 155.49 641.697 154.809C643.569 154.071 645.185 153.191 646.545 152.17C647.556 151.412 648.409 150.653 649.106 149.895C649.13 151.321 649.603 152.537 650.544 153.531C651.507 154.496 652.726 154.978 654.201 154.978C655.675 154.978 656.894 154.496 657.858 153.531C658.822 152.51 659.304 151.261 659.304 149.786V113.787C659.304 112.255 658.822 111.007 657.858 110.042C656.894 109.078 655.675 108.596 654.201 108.596ZM647.907 139.49C646.886 141.645 645.44 143.348 643.569 144.596C641.697 145.844 639.514 146.468 637.019 146.468C634.581 146.468 632.427 145.844 630.555 144.596C628.684 143.348 627.21 141.645 626.133 139.49C625.112 137.334 624.602 134.922 624.602 132.255C624.602 129.532 625.112 127.092 626.133 124.937C627.21 122.78 628.684 121.078 630.555 119.83C632.427 118.581 634.581 117.957 637.019 117.957C639.514 117.957 641.697 118.581 643.569 119.83C645.44 121.078 646.886 122.78 647.907 124.937C648.984 127.092 649.523 129.532 649.523 132.255C649.523 134.922 648.984 137.334 647.907 139.49Z" fill="#1A202C"/>
<path d="M708.724 118.298C707.93 115.348 706.428 112.993 704.216 111.234C702.062 109.475 698.886 108.596 694.69 108.596C692.763 108.596 690.976 108.907 689.332 109.532C687.687 110.099 686.213 110.866 684.91 111.83C683.605 112.795 682.471 113.844 681.507 114.978C681.163 115.363 680.858 115.738 680.572 116.109V114.638C680.572 113.163 680.09 111.943 679.125 110.978C678.161 109.957 676.943 109.446 675.468 109.446C673.994 109.446 672.774 109.957 671.81 110.978C670.847 111.943 670.365 113.163 670.365 114.638V149.787C670.365 151.262 670.847 152.511 671.81 153.532C672.774 154.497 673.994 154.979 675.468 154.979C676.943 154.979 678.161 154.497 679.125 153.532C680.09 152.511 680.572 151.262 680.572 149.787V128.001C680.572 126.127 680.968 124.454 681.762 122.978C682.613 121.447 683.804 120.227 685.335 119.319C686.922 118.412 688.85 117.957 691.118 117.957C693.442 117.957 695.229 118.412 696.477 119.319C697.724 120.227 698.575 121.447 699.028 122.978C699.539 124.454 699.793 126.127 699.793 128.001V149.787C699.793 151.262 700.275 152.511 701.24 153.532C702.204 154.497 703.422 154.979 704.897 154.979C706.371 154.979 707.591 154.497 708.554 153.532C709.518 152.511 710 151.262 710 149.787V128.001C710 124.426 709.575 121.191 708.724 118.298Z" fill="#1A202C"/>
<defs>
<radialGradient id="paint0_radial" cx="0" cy="0" r="1" gradientUnits="userSpaceOnUse" gradientTransform="translate(121.994 139.674) rotate(-131.799) scale(126.029 163.967)">
<stop offset="0.1354" stop-color="#FF9999"/>
<stop offset="1" stop-color="#3990EF"/>
</radialGradient>
<linearGradient id="paint1_linear" x1="73.7925" y1="19.0333" x2="-6.1829" y2="57.371" gradientUnits="userSpaceOnUse">
<stop stop-color="white" stop-opacity="0"/>
<stop offset="1" stop-color="white" stop-opacity="0.6"/>
</linearGradient>
</defs>
</svg>
